<?xml version="1.0" encoding="UTF-8" standalone="no"?>
<!DOCTYPE svg PUBLIC "-//W3C//DTD SVG 1.1//EN" "http://www.w3.org/Graphics/SVG/1.1/DTD/svg11.dtd">
<svg width="100%" height="100%" viewBox="0 0 1670 1017" version="1.1" xmlns="http://www.w3.org/2000/svg" xmlns:xlink="http://www.w3.org/1999/xlink" xml:space="preserve" xmlns:serif="http://www.serif.com/" style="fill-rule:evenodd;clip-rule:evenodd;stroke-linecap:round;stroke-miterlimit:10;">
    <g transform="matrix(1,0,0,1,-1172.22,-597.223)">
        <g transform="matrix(4.16667,0,0,4.16667,0,0)">
            <g transform="matrix(1,0,0,1,593.426,170.879)">
                <path d="M0,-7.301C0,-9.669 -0.02,-12.038 0.007,-14.406C0.028,-16.231 1.687,-17.39 3.306,-16.753C4.289,-16.365 4.834,-15.478 4.835,-14.227C4.839,-10.219 4.858,-6.211 4.816,-2.204C4.808,-1.487 5.043,-1.081 5.601,-0.672C8.195,1.23 10.755,3.18 13.331,5.107C14.227,5.777 14.651,6.643 14.372,7.749C13.955,9.405 12.079,10.089 10.653,9.105C9.755,8.485 8.898,7.803 8.024,7.148C5.806,5.485 3.605,3.8 1.363,2.169C0.407,1.474 -0.029,0.615 -0.011,-0.561C0.024,-2.807 0,-5.054 0,-7.301" style="fill:rgb(207,233,235);fill-rule:nonzero;"/>
            </g>
        </g>
        <g transform="matrix(4.16667,0,0,4.16667,0,0)">
            <g transform="matrix(0,-1,-1,0,329.567,226.171)">
                <path d="M-7.075,-7.075C-10.982,-7.075 -14.15,-3.908 -14.15,0C-14.15,3.907 -10.982,7.075 -7.075,7.075C-3.168,7.075 0,3.907 0,0C0,-3.908 -3.168,-7.075 -7.075,-7.075" style="fill:rgb(207,233,235);fill-rule:nonzero;"/>
            </g>
        </g>
        <g transform="matrix(4.16667,0,0,4.16667,0,0)">
            <g transform="matrix(0,-1,-1,0,347.048,167.009)">
                <path d="M-3.151,-3.151C-4.891,-3.151 -6.302,-1.74 -6.302,0C-6.302,1.74 -4.891,3.151 -3.151,3.151C-1.411,3.151 0,1.74 0,0C0,-1.74 -1.411,-3.151 -3.151,-3.151" style="fill:rgb(207,233,235);fill-rule:nonzero;"/>
            </g>
        </g>
        <g transform="matrix(4.16667,0,0,4.16667,0,0)">
            <g transform="matrix(0,-1,-1,0,307.248,179.615)">
                <path d="M-3.44,-3.44C-5.34,-3.44 -6.88,-1.9 -6.88,0C-6.88,1.9 -5.34,3.44 -3.44,3.44C-1.54,3.44 0,1.9 0,0C0,-1.9 -1.54,-3.44 -3.44,-3.44" style="fill:rgb(207,233,235);fill-rule:nonzero;"/>
            </g>
        </g>
        <g transform="matrix(4.16667,0,0,4.16667,0,0)">
            <g transform="matrix(0,-1,-1,0,388.647,152.441)">
                <path d="M-2.632,-2.632C-4.085,-2.632 -5.263,-1.453 -5.263,0C-5.263,1.454 -4.085,2.632 -2.632,2.632C-1.179,2.632 0,1.454 0,0C0,-1.453 -1.179,-2.632 -2.632,-2.632" style="fill:rgb(207,233,235);fill-rule:nonzero;"/>
            </g>
        </g>
        <g transform="matrix(4.16667,0,0,4.16667,0,0)">
            <g transform="matrix(0,-1,-1,0,285,359.878)">
                <path d="M-3.667,-3.667C-5.691,-3.667 -7.334,-2.024 -7.334,0.001C-7.334,2.025 -5.691,3.667 -3.667,3.667C-1.642,3.667 0.001,2.025 0.001,0.001C0.001,-2.024 -1.642,-3.667 -3.667,-3.667" style="fill:rgb(207,233,235);fill-rule:nonzero;"/>
            </g>
        </g>
        <g transform="matrix(4.16667,0,0,4.16667,0,0)">
            <g transform="matrix(0,-1,-1,0,635.07,194.248)">
                <path d="M-2.801,-2.801C-4.348,-2.801 -5.602,-1.547 -5.602,-0.001C-5.602,1.546 -4.348,2.801 -2.801,2.801C-1.254,2.801 0,1.546 0,-0.001C0,-1.547 -1.254,-2.801 -2.801,-2.801" style="fill:rgb(207,233,235);fill-rule:nonzero;"/>
            </g>
        </g>
        <g transform="matrix(4.16667,0,0,4.16667,0,0)">
            <g transform="matrix(0,-1,-1,0,537.905,143.334)">
                <path d="M-2.939,-2.939C-4.562,-2.939 -5.878,-1.623 -5.878,-0C-5.878,1.623 -4.562,2.939 -2.939,2.939C-1.316,2.939 -0,1.623 -0,-0C-0,-1.623 -1.316,-2.939 -2.939,-2.939" style="fill:rgb(207,233,235);fill-rule:nonzero;"/>
            </g>
        </g>
        <g transform="matrix(4.16667,0,0,4.16667,0,0)">
            <g transform="matrix(1,0,0,1,672.871,333.174)">
                <path d="M0,13.556C-12.494,18.323 -21.654,31.652 -26.877,41.256C-16.184,18.188 6.605,-33.62 -9.116,-23.979C-24.261,-14.689 -29.519,23.648 -31.192,42.006C-29.974,20.691 -29.019,-28.082 -45.31,-33.094C-62.356,-38.339 -42.706,21.435 -34.858,43.714C-39.164,33.443 -48.127,17.561 -61.396,21.063C-80.699,26.157 -31.904,51.895 -31.904,51.895C4.826,28.302 20.376,5.781 0,13.556" style="fill:rgb(71,199,168);fill-rule:nonzero;"/>
            </g>
        </g>
        <g transform="matrix(4.16667,0,0,4.16667,0,0)">
            <g transform="matrix(1,0,0,1,677.864,381.936)">
                <path d="M0,-33.711C-0.064,-33.804 -0.189,-33.827 -0.28,-33.764C-4.757,-30.723 -10.005,-26.243 -15.087,-21.541C-15.097,-21.531 -15.107,-21.526 -15.115,-21.515C-17.984,-18.859 -20.8,-16.135 -23.394,-13.558L-21.021,-21.071C-20.988,-21.177 -21.046,-21.29 -21.152,-21.323C-21.262,-21.357 -21.372,-21.297 -21.405,-21.192L-24.009,-12.944C-30.936,-6.031 -36.136,-0.336 -36.241,-0.22C-36.316,-0.138 -36.31,-0.011 -36.228,0.064C-36.189,0.099 -36.141,0.116 -36.093,0.116C-36.039,0.116 -35.984,0.094 -35.944,0.05C-35.89,-0.009 -34.523,-1.506 -32.289,-3.866L-26.383,-5.657C-26.276,-5.689 -26.216,-5.801 -26.249,-5.907C-26.282,-6.014 -26.397,-6.071 -26.499,-6.042L-31.729,-4.456C-27.758,-8.634 -21.452,-15.102 -14.856,-21.207L-8.225,-21.836C-8.114,-21.846 -8.033,-21.944 -8.043,-22.055C-8.054,-22.166 -8.151,-22.248 -8.262,-22.236L-14.369,-21.658C-9.441,-26.195 -4.384,-30.49 -0.053,-33.431C0.038,-33.494 0.062,-33.619 0,-33.711" style="fill:white;fill-rule:nonzero;"/>
            </g>
        </g>
        <g transform="matrix(4.16667,0,0,4.16667,0,0)">
            <g transform="matrix(1,0,0,1,642.538,311.122)">
                <path d="M0,67.844C0.013,67.846 0.025,67.847 0.037,67.847C0.132,67.847 0.217,67.78 0.235,67.683C0.256,67.567 0.721,65.09 1.554,61.142L5.425,56.039C5.492,55.95 5.475,55.824 5.387,55.757C5.297,55.69 5.172,55.707 5.105,55.795L1.75,60.217C3.405,52.453 6.319,39.802 10.021,27.942L18.352,21.896C18.443,21.831 18.462,21.705 18.397,21.616C18.331,21.526 18.205,21.506 18.117,21.571L10.224,27.299C13.909,15.614 18.352,4.807 23.097,0.365C23.178,0.289 23.183,0.162 23.107,0.081C23.03,-0.001 22.902,-0.003 22.822,0.071C19.803,2.898 16.908,8.269 14.251,14.793L13.709,7.743C13.701,7.633 13.609,7.545 13.493,7.558C13.383,7.567 13.3,7.664 13.309,7.774L13.912,15.621C13.912,15.623 13.914,15.624 13.915,15.627C12.417,19.388 10.998,23.503 9.678,27.719C9.645,27.76 9.63,27.804 9.635,27.855C8.251,32.288 6.977,36.828 5.838,41.183L4.458,33.895C4.435,33.787 4.333,33.717 4.222,33.735C4.113,33.756 4.041,33.861 4.062,33.97L5.6,42.088C5.6,42.089 5.601,42.09 5.602,42.091C2.064,55.756 -0.114,67.356 -0.161,67.609C-0.181,67.718 -0.109,67.824 0,67.844" style="fill:white;fill-rule:nonzero;"/>
            </g>
        </g>
        <g transform="matrix(4.16667,0,0,4.16667,0,0)">
            <g transform="matrix(1,0,0,1,628.624,367.14)">
                <path d="M0,2.851L-2.21,-4.284C-2.242,-4.39 -2.356,-4.444 -2.462,-4.416C-2.568,-4.383 -2.627,-4.27 -2.595,-4.164L-0.561,2.403C-3.067,0.409 -5.648,-1.571 -8.021,-3.355C-8.025,-3.36 -8.03,-3.361 -8.035,-3.365C-13.192,-7.244 -17.338,-10.184 -17.435,-10.253C-17.526,-10.318 -17.651,-10.296 -17.715,-10.205C-17.78,-10.114 -17.758,-9.989 -17.667,-9.925C-17.573,-9.858 -13.692,-7.106 -8.775,-3.42L-15.104,-3.42C-15.215,-3.42 -15.305,-3.329 -15.305,-3.219C-15.305,-3.108 -15.215,-3.017 -15.104,-3.017L-8.24,-3.017C-1.244,2.244 7.596,9.219 10.711,13.094C10.751,13.143 10.81,13.169 10.868,13.169C10.912,13.169 10.957,13.155 10.994,13.125C11.081,13.055 11.095,12.929 11.026,12.843C9.026,10.356 4.694,6.608 0,2.851" style="fill:white;fill-rule:nonzero;"/>
            </g>
        </g>
        <g transform="matrix(4.16667,0,0,4.16667,0,0)">
            <g transform="matrix(1,0,0,1,641.026,317.672)">
                <path d="M0,44.549C-0.106,44.52 -0.218,44.576 -0.251,44.682L-2.174,50.924C-2.888,44.066 -4.028,33.944 -5.495,23.609L-2.087,13.538C-2.051,13.433 -2.107,13.319 -2.213,13.284C-2.316,13.247 -2.431,13.304 -2.467,13.409L-5.621,22.729C-6.7,15.212 -7.95,7.636 -9.334,1.168L-7.481,-8.405C-7.459,-8.514 -7.531,-8.62 -7.639,-8.641C-7.756,-8.669 -7.855,-8.591 -7.875,-8.482L-9.55,0.172C-11.103,-6.881 -12.817,-12.488 -14.641,-15.029C-14.707,-15.121 -14.833,-15.139 -14.921,-15.075C-15.012,-15.011 -15.032,-14.885 -14.968,-14.795C-12.376,-11.185 -9.982,-1.043 -7.963,10.629L-16.146,5.96C-16.243,5.904 -16.366,5.937 -16.42,6.035C-16.475,6.131 -16.442,6.254 -16.345,6.309L-7.874,11.142C-6.53,18.982 -5.355,27.472 -4.403,35.122L-10.114,31.898C-10.212,31.844 -10.334,31.878 -10.388,31.975C-10.443,32.071 -10.409,32.194 -10.312,32.249L-4.341,35.619C-2.717,48.732 -1.757,59.247 -1.733,59.505C-1.724,59.609 -1.636,59.688 -1.533,59.688C-1.528,59.688 -1.521,59.688 -1.515,59.687C-1.404,59.677 -1.323,59.58 -1.333,59.469C-1.379,58.956 -1.634,56.167 -2.068,51.947L0.134,44.8C0.166,44.694 0.106,44.582 0,44.549" style="fill:white;fill-rule:nonzero;"/>
            </g>
        </g>
        <g transform="matrix(4.16667,0,0,4.16667,0,0)">
            <g transform="matrix(1,0,0,1,328.942,341.936)">
                <path d="M0,23.807L-0.001,23.807C-9.554,23.807 -15.506,22.923 -16.331,21.382C-16.422,21.212 -16.506,20.929 -16.181,20.442C-15.596,19.563 -14.371,19.118 -12.541,19.118C-7.653,19.118 0.104,22.295 3.437,23.768C2.536,23.788 1.346,23.807 0,23.807M-18.387,4.275C-18.399,3.874 -18.328,3.591 -18.176,3.434C-18.052,3.306 -17.857,3.245 -17.58,3.245C-14.404,3.245 -4.847,10.944 0.809,15.919C-4.211,14.375 -18.226,9.591 -18.387,4.275M-12.352,-4.673L-12.353,-4.673C-15.961,-4.673 -20.844,-5.667 -23.614,-10.399C-24.446,-11.82 -24.322,-12.261 -24.263,-12.362C-24.183,-12.503 -23.9,-12.524 -23.738,-12.524C-20.797,-12.524 -11.513,-6.813 -8.651,-5.007C-9.49,-4.855 -10.811,-4.673 -12.352,-4.673M0.821,-16.336C0.937,-16.466 1.015,-16.466 1.045,-16.466C1.146,-16.466 1.438,-16.394 1.971,-15.723C6.384,-10.165 2.77,5.671 1.284,11.331C0.337,2.759 -1.09,-14.18 0.821,-16.336M7.236,14.779C8.139,3.338 9.423,3.007 9.566,3.007C9.579,3.007 9.884,3.019 10.404,4.059C13.455,10.16 8.694,21.033 6.685,25.106C6.758,22.849 6.919,18.796 7.236,14.779M6.665,26.956C7.575,25.293 14.966,11.333 11.144,3.689C10.63,2.659 10.128,2.18 9.566,2.18C8.918,2.18 7.4,2.18 6.411,14.717C6.108,18.554 5.947,22.42 5.87,24.737C5.791,24.522 5.713,24.305 5.633,24.087C5.627,24.022 5.603,23.963 5.568,23.908C4.74,21.641 3.836,19.247 2.87,16.795C2.863,16.724 2.836,16.658 2.793,16.598C2.388,15.572 1.972,14.537 1.546,13.497C2.113,11.586 8.129,-9.299 2.619,-16.238C2.054,-16.948 1.539,-17.294 1.045,-17.294C0.826,-17.294 0.502,-17.223 0.202,-16.884C-2.074,-14.317 -0.409,3.428 0.382,10.7C-1.932,5.243 -4.499,-0.213 -7.191,-4.95C-7.209,-5.001 -7.234,-5.048 -7.27,-5.088C-9.235,-8.531 -11.266,-11.589 -13.316,-13.975C-13.465,-14.148 -13.727,-14.168 -13.9,-14.019C-14.073,-13.87 -14.093,-13.609 -13.944,-13.436C-12.207,-11.414 -10.482,-8.903 -8.8,-6.08C-12.23,-8.226 -20.734,-13.351 -23.738,-13.351C-24.343,-13.351 -24.761,-13.157 -24.981,-12.774C-25.312,-12.196 -25.105,-11.308 -24.328,-9.981C-21.36,-4.91 -16.178,-3.846 -12.353,-3.846L-12.352,-3.846C-10.19,-3.846 -8.473,-4.181 -7.79,-4.337C-4.445,1.578 -1.297,8.613 1.41,15.351C-2.48,11.943 -13.697,2.417 -17.58,2.417C-18.086,2.417 -18.486,2.565 -18.769,2.858C-19.084,3.181 -19.233,3.667 -19.214,4.3C-19.01,11.048 -0.236,16.513 2.135,17.176C2.963,19.283 3.746,21.347 4.474,23.323C1.624,22.023 -7.039,18.291 -12.541,18.291C-14.665,18.291 -16.121,18.86 -16.87,19.983C-17.396,20.773 -17.264,21.392 -17.06,21.772C-16.044,23.671 -10.305,24.634 -0.001,24.634L0,24.634C2.343,24.634 4.211,24.578 4.925,24.553C8.242,33.668 10.328,40.639 10.378,40.805C10.431,40.985 10.596,41.101 10.774,41.101C10.813,41.101 10.853,41.096 10.892,41.084C11.111,41.019 11.236,40.789 11.171,40.57C11.126,40.42 9.43,34.751 6.665,26.956" style="fill:rgb(71,199,168);fill-rule:nonzero;"/>
            </g>
        </g>
        <g transform="matrix(4.16667,0,0,4.16667,0,0)">
            <g transform="matrix(1,0,0,1,571.097,219.473)">
                <path d="M0,149.923L-173.029,149.923C-177.72,149.923 -181.523,146.12 -181.523,141.429L-181.523,8.493C-181.523,3.802 -177.72,0 -173.029,0L0,0C4.691,0 8.494,3.802 8.494,8.493L8.494,141.429C8.494,146.12 4.691,149.923 0,149.923" style="fill:rgb(31,36,114);fill-rule:nonzero;"/>
            </g>
        </g>
        <g transform="matrix(4.16667,0,0,4.16667,0,0)">
            <g transform="matrix(-1,0,0,1,969.166,86.758)">
                <rect x="397.432" y="139.915" width="174.302" height="133.412" style="fill:rgb(252,238,231);"/>
            </g>
        </g>
        <g transform="matrix(4.16667,0,0,4.16667,0,0)">
            <g transform="matrix(-1,0,0,1,1042.92,69.005)">
                <rect x="474.802" y="173.296" width="93.32" height="84.403" style="fill:white;"/>
            </g>
        </g>
        <g transform="matrix(4.16667,0,0,4.16667,0,0)">
            <g transform="matrix(-1,0,0,1,1043.07,-0.862)">
                <rect x="477.471" y="247.489" width="88.13" height="5.884" style="fill:rgb(0,164,212);"/>
            </g>
        </g>
        <g transform="matrix(4.16667,0,0,4.16667,0,0)">
            <g transform="matrix(0,-1,-1,0,561.558,258.046)">
                <path d="M-2.75,-2.75C-4.268,-2.75 -5.499,-1.519 -5.499,-0.001C-5.499,1.518 -4.268,2.75 -2.75,2.75C-1.232,2.75 -0.001,1.518 -0.001,-0.001C-0.001,-1.519 -1.232,-2.75 -2.75,-2.75" style="fill:rgb(118,28,108);fill-rule:nonzero;"/>
            </g>
        </g>
        <g transform="matrix(4.16667,0,0,4.16667,0,0)">
            <g transform="matrix(0,-1,-1,0,561.558,268.161)">
                <path d="M-2.75,-2.75C-4.269,-2.75 -5.499,-1.519 -5.499,-0.001C-5.499,1.518 -4.269,2.75 -2.75,2.75C-1.232,2.75 -0.001,1.518 -0.001,-0.001C-0.001,-1.519 -1.232,-2.75 -2.75,-2.75" style="fill:rgb(118,28,108);fill-rule:nonzero;"/>
            </g>
        </g>
        <g transform="matrix(4.16667,0,0,4.16667,0,0)">
            <g transform="matrix(0,-1,-1,0,561.558,278.447)">
                <path d="M-2.75,-2.75C-4.268,-2.75 -5.499,-1.519 -5.499,-0.001C-5.499,1.518 -4.268,2.75 -2.75,2.75C-1.232,2.75 -0.001,1.518 -0.001,-0.001C-0.001,-1.519 -1.232,-2.75 -2.75,-2.75" style="fill:rgb(118,28,108);fill-rule:nonzero;"/>
            </g>
        </g>
        <g transform="matrix(4.16667,0,0,4.16667,0,0)">
            <g transform="matrix(0,-1,-1,0,561.558,289.378)">
                <path d="M-2.75,-2.75C-4.268,-2.75 -5.499,-1.519 -5.499,-0.001C-5.499,1.518 -4.268,2.75 -2.75,2.75C-1.232,2.75 -0.001,1.518 -0.001,-0.001C-0.001,-1.519 -1.232,-2.75 -2.75,-2.75" style="fill:rgb(118,28,108);fill-rule:nonzero;"/>
            </g>
        </g>
        <g transform="matrix(4.16667,0,0,4.16667,0,0)">
            <g transform="matrix(-1,0,0,1,1032.81,17.858)">
                <rect x="477.471" y="239.859" width="77.872" height="2.424" style="fill:rgb(231,227,233);"/>
            </g>
        </g>
        <g transform="matrix(4.16667,0,0,4.16667,0,0)">
            <g transform="matrix(-1,0,0,1,993.075,25.78)">
                <rect x="477.471" y="235.898" width="38.133" height="2.424" style="fill:rgb(231,227,233);"/>
            </g>
        </g>
        <g transform="matrix(4.16667,0,0,4.16667,0,0)">
            <g transform="matrix(-1,0,0,1,1032.81,38.088)">
                <rect x="477.471" y="229.744" width="77.872" height="2.424" style="fill:rgb(231,227,233);"/>
            </g>
        </g>
        <g transform="matrix(4.16667,0,0,4.16667,0,0)">
            <g transform="matrix(-1,0,0,1,993.075,46.01)">
                <rect x="477.471" y="225.783" width="38.133" height="2.424" style="fill:rgb(231,227,233);"/>
            </g>
        </g>
        <g transform="matrix(4.16667,0,0,4.16667,0,0)">
            <g transform="matrix(-1,0,0,1,1032.81,58.658)">
                <rect x="477.471" y="219.459" width="77.872" height="2.424" style="fill:rgb(231,227,233);"/>
            </g>
        </g>
        <g transform="matrix(4.16667,0,0,4.16667,0,0)">
            <g transform="matrix(-1,0,0,1,993.075,66.582)">
                <rect x="477.471" y="215.497" width="38.133" height="2.424" style="fill:rgb(231,227,233);"/>
            </g>
        </g>
        <g transform="matrix(4.16667,0,0,4.16667,0,0)">
            <g transform="matrix(-1,0,0,1,1032.81,80.522)">
                <rect x="477.471" y="208.527" width="77.872" height="2.424" style="fill:rgb(231,227,233);"/>
            </g>
        </g>
        <g transform="matrix(4.16667,0,0,4.16667,0,0)">
            <g transform="matrix(-1,0,0,1,993.075,88.446)">
                <rect x="477.471" y="204.565" width="38.133" height="2.424" style="fill:rgb(231,227,233);"/>
            </g>
        </g>
        <g transform="matrix(4.16667,0,0,4.16667,0,0)">
            <g transform="matrix(-1,0,0,1,830.91,133.843)">
                <rect x="401.853" y="180.916" width="27.204" height="4.325" style="fill:rgb(231,197,180);"/>
            </g>
        </g>
        <g transform="matrix(4.16667,0,0,4.16667,0,0)">
            <g transform="matrix(-1,0,0,1,830.91,149.937)">
                <rect x="401.853" y="172.869" width="27.204" height="4.325" style="fill:rgb(231,197,180);"/>
            </g>
        </g>
        <g transform="matrix(4.16667,0,0,4.16667,0,0)">
            <g transform="matrix(1,0,0,1,467.259,308.268)">
                <path d="M0,-0.004L0,-15.429C0,-16.404 -0.453,-16.859 -1.424,-16.859L-32.274,-16.859C-33.268,-16.859 -33.714,-16.41 -33.714,-15.408L-33.714,15.406C-33.714,16.406 -33.268,16.854 -32.271,16.854C-22,16.855 -11.729,16.855 -1.458,16.854C-0.438,16.854 0,16.412 0,15.384L0,-0.004M2.408,-16.031L2.408,16.027C2.388,16.085 2.358,16.142 2.349,16.202C2.211,17.102 1.781,17.832 1.092,18.423C0.535,18.901 -0.131,19.113 -0.828,19.263L-32.886,19.263C-32.931,19.244 -32.975,19.215 -33.022,19.208C-33.952,19.077 -34.702,18.636 -35.304,17.919C-35.768,17.367 -35.974,16.711 -36.122,16.027L-36.122,-16.031C-36.102,-16.09 -36.072,-16.147 -36.063,-16.207C-35.925,-17.107 -35.495,-17.836 -34.806,-18.428C-34.249,-18.905 -33.583,-19.118 -32.886,-19.267L-0.828,-19.267C-0.783,-19.249 -0.739,-19.22 -0.692,-19.213C0.238,-19.082 0.988,-18.64 1.59,-17.924C2.054,-17.372 2.26,-16.716 2.408,-16.031" style="fill:rgb(241,136,110);fill-rule:nonzero;"/>
            </g>
        </g>
        <g transform="matrix(4.16667,0,0,4.16667,0,0)">
            <g transform="matrix(1,0,0,1,452.82,312.206)">
                <path d="M0,0.374C0.697,-0.323 1.377,-1.004 2.058,-1.685C2.271,-1.898 2.48,-2.114 2.697,-2.323C3.276,-2.88 3.944,-2.876 4.528,-2.316C4.555,-2.29 4.582,-2.263 4.608,-2.237C6.515,-0.33 8.426,1.572 10.322,3.49C10.533,3.703 10.724,3.989 10.799,4.273C10.974,4.946 10.449,5.608 9.741,5.683C9.629,5.695 9.516,5.692 9.403,5.692L-14.225,5.692C-15.013,5.692 -15.484,5.358 -15.617,4.707C-15.712,4.243 -15.53,3.875 -15.211,3.555C-14.368,2.713 -13.526,1.87 -12.684,1.028C-10.813,-0.843 -8.942,-2.715 -7.07,-4.586C-6.334,-5.321 -5.712,-5.319 -4.973,-4.58C-3.421,-3.029 -1.869,-1.477 -0.317,0.075C-0.221,0.17 -0.121,0.26 0,0.374" style="fill:rgb(241,136,110);fill-rule:nonzero;"/>
            </g>
        </g>
        <g transform="matrix(4.16667,0,0,4.16667,0,0)">
            <g transform="matrix(-0.999981,-0.00623343,-0.00623343,0.999981,453.998,305.874)">
                <path d="M0.016,-7.239C-1.964,-7.237 -3.615,-5.592 -3.603,-3.629C-3.591,-1.644 -1.941,0.002 0.016,-0.02C1.993,-0.042 3.608,-1.653 3.616,-3.611C3.623,-5.586 1.983,-7.241 0.016,-7.239" style="fill:rgb(241,136,110);fill-rule:nonzero;"/>
            </g>
        </g>
        <g transform="matrix(4.16667,0,0,4.16667,0,0)">
            <g transform="matrix(-1,0,0,1,925.685,185.836)">
                <rect x="401.81" y="143.237" width="122.065" height="27.69" style="fill:rgb(251,172,59);"/>
            </g>
        </g>
        <g transform="matrix(4.16667,0,0,4.16667,0,0)">
            <g transform="matrix(0,-1,-1,0,546.887,330.996)">
                <path d="M-11.922,-11.922C-18.505,-11.922 -23.844,-6.585 -23.844,-0.001C-23.844,6.585 -18.505,11.922 -11.922,11.922C-5.338,11.922 0.001,6.585 0.001,-0.001C0.001,-6.585 -5.338,-11.922 -11.922,-11.922" style="fill:rgb(241,136,110);fill-rule:nonzero;"/>
            </g>
        </g>
        <g transform="matrix(4.16667,0,0,4.16667,0,0)">
            <g transform="matrix(-1,0,0,1,873.639,-11.073)">
                <rect x="402.718" y="253.374" width="68.203" height="4.325" style="fill:rgb(231,197,180);"/>
            </g>
        </g>
        <g transform="matrix(4.16667,0,0,4.16667,0,0)">
            <g transform="matrix(-1,0,0,1,873.639,5.021)">
                <rect x="402.718" y="245.327" width="68.203" height="4.325" style="fill:rgb(231,197,180);"/>
            </g>
        </g>
        <g transform="matrix(4.16667,0,0,4.16667,0,0)">
            <g transform="matrix(-1,0,0,1,828.735,21.591)">
                <rect x="402.719" y="237.042" width="23.297" height="4.325" style="fill:rgb(231,197,180);"/>
            </g>
        </g>
        <g transform="matrix(4.16667,0,0,4.16667,0,0)">
            <g transform="matrix(1,0,0,1,404.675,352.107)">
                <path d="M0,0L115.873,0" style="fill:none;fill-rule:nonzero;stroke:white;stroke-width:1px;"/>
            </g>
        </g>
        <g transform="matrix(4.16667,0,0,4.16667,0,0)">
            <g transform="matrix(1,0,0,1,404.675,347.214)">
                <path d="M0,0L115.873,0" style="fill:none;fill-rule:nonzero;stroke:white;stroke-width:1px;"/>
            </g>
        </g>
        <g transform="matrix(4.16667,0,0,4.16667,0,0)">
            <g transform="matrix(1,0,0,1,404.675,342.918)">
                <path d="M0,0L115.873,0" style="fill:none;fill-rule:nonzero;stroke:white;stroke-width:1px;"/>
            </g>
        </g>
        <g transform="matrix(4.16667,0,0,4.16667,0,0)">
            <g transform="matrix(1,0,0,1,404.675,338.025)">
                <path d="M0,0L115.873,0" style="fill:none;fill-rule:nonzero;stroke:white;stroke-width:1px;"/>
            </g>
        </g>
        <g transform="matrix(4.16667,0,0,4.16667,0,0)">
            <g transform="matrix(1,0,0,1,404.675,333.558)">
                <path d="M0,0L115.873,0" style="fill:none;fill-rule:nonzero;stroke:white;stroke-width:1px;"/>
            </g>
        </g>
        <g transform="matrix(4.16667,0,0,4.16667,0,0)">
            <g transform="matrix(-1,0,0,1,969.166,-36.986)">
                <rect x="397.432" y="263.658" width="174.302" height="9.67" style="fill:rgb(21,8,4);"/>
            </g>
        </g>
        <g transform="matrix(4.16667,0,0,4.16667,0,0)">
            <g transform="matrix(0,-1,-1,0,401.995,228.827)">
                <path d="M-2.68,-2.68C-4.16,-2.68 -5.36,-1.48 -5.36,0C-5.36,1.48 -4.16,2.68 -2.68,2.68C-1.2,2.68 0,1.48 0,0C0,-1.48 -1.2,-2.68 -2.68,-2.68" style="fill:rgb(198,48,80);fill-rule:nonzero;"/>
            </g>
        </g>
        <g transform="matrix(4.16667,0,0,4.16667,0,0)">
            <g transform="matrix(0,-1,-1,0,409.326,228.827)">
                <path d="M-2.68,-2.68C-4.16,-2.68 -5.36,-1.48 -5.36,0C-5.36,1.48 -4.16,2.68 -2.68,2.68C-1.2,2.68 0,1.48 0,0C0,-1.48 -1.2,-2.68 -2.68,-2.68" style="fill:rgb(251,171,58);fill-rule:nonzero;"/>
            </g>
        </g>
        <g transform="matrix(4.16667,0,0,4.16667,0,0)">
            <g transform="matrix(0,-1,-1,0,416.869,228.827)">
                <path d="M-2.68,-2.68C-4.16,-2.68 -5.36,-1.48 -5.36,0C-5.36,1.48 -4.16,2.68 -2.68,2.68C-1.2,2.68 0,1.48 0,0C0,-1.48 -1.2,-2.68 -2.68,-2.68" style="fill:rgb(252,238,231);fill-rule:nonzero;"/>
            </g>
        </g>
        <g transform="matrix(4.16667,0,0,4.16667,0,0)">
            <g transform="matrix(1,0,0,1,521.457,377.319)">
                <path d="M0,6.099L-73.747,6.099L-73.747,5.481C-73.747,2.454 -71.293,0 -68.266,0L-5.482,0C-2.454,0 0,2.454 0,5.481L0,6.099Z" style="fill:rgb(31,36,114);fill-rule:nonzero;"/>
            </g>
        </g>
        <g transform="matrix(4.16667,0,0,4.16667,0,0)">
            <g transform="matrix(1,0,0,1,484.583,377.318)">
                <path d="M20.315,-7.922L-20.315,-7.922L-17.173,0L17.173,0L20.315,-7.922Z" style="fill:rgb(21,26,82);fill-rule:nonzero;"/>
            </g>
        </g>
        <g transform="matrix(4.16667,0,0,4.16667,0,0)">
            <g transform="matrix(1,0,0,1,504.898,374.036)">
                <path d="M0,-4.64L-38.791,0L-40.631,-4.64L0,-4.64Z" style="fill:rgb(20,7,49);fill-rule:nonzero;"/>
            </g>
        </g>
        <g transform="matrix(4.16667,0,0,4.16667,0,0)">
            <g transform="matrix(1,0,0,1,660.221,383.418)">
                <path d="M0,3.926L-346.616,3.926C-347.591,3.926 -348.38,3.136 -348.38,2.162L-348.38,1.764C-348.38,0.79 -347.591,0 -346.616,0L0,0C0.974,0 1.764,0.79 1.764,1.764L1.764,2.162C1.764,3.136 0.974,3.926 0,3.926" style="fill:rgb(21,8,4);fill-rule:nonzero;"/>
            </g>
        </g>
        <g transform="matrix(4.16667,0,0,4.16667,0,0)">
            <g opacity="0.45">
                <g transform="matrix(1,0,0,1,458.276,232.399)">
                    <path d="M0,-1.785C0.063,-1.754 0.127,-1.722 0.189,-1.691L-9.502,1.746C-11.865,2.583 -13.102,5.179 -12.264,7.542C-11.426,9.905 -8.831,11.141 -6.467,10.303L7.145,5.477C8.74,4.911 9.818,3.544 10.095,1.989C10.315,1.969 10.523,1.931 10.723,1.882C11.241,2.821 12.087,3.584 13.177,3.97L26.789,8.797C29.152,9.635 31.747,8.399 32.585,6.035C33.423,3.672 32.187,1.077 29.824,0.239L20.508,-3.064C23.906,-4.809 31.898,-12.926 31.898,-12.926L-19.915,-12.926C-13.898,-9.077 -5.98,-4.758 0,-1.785Z" style="fill:rgb(0,29,36);fill-rule:nonzero;"/>
                </g>
            </g>
        </g>
        <g transform="matrix(4.16667,0,0,4.16667,0,0)">
            <g opacity="0.45">
                <g transform="matrix(1,0,0,1,406.58,280.542)">
                    <path d="M0,0.059L-0.241,0.572L1.777,2.118L-0.502,0.373L0,0.059ZM1.025,4.384L2.169,5.354L2.654,2.79L2.202,2.443L4.733,1.265L6.743,-4.141L5.293,-3.25L10.182,-6.307L19.495,-18.551L4.409,-15.539L-17.005,-2.15L-17.005,10.692L-2.904,1.875L-2.891,1.889L-13.149,10.345L-17.005,10.918L-17.005,18.61L-10.723,16.652L1.025,4.384Z" style="fill:rgb(0,29,36);fill-rule:nonzero;"/>
                </g>
            </g>
        </g>
        <g transform="matrix(4.16667,0,0,4.16667,0,0)">
            <g opacity="0.45">
                <g transform="matrix(1,0,0,1,574.744,275.61)">
                    <path d="M0,-54.488L0,-38.034L-5.193,-38.034L-5.193,0L4.847,0L4.847,-45.663C4.847,-49.375 2.912,-52.627 0,-54.488" style="fill:rgb(0,29,36);fill-rule:nonzero;"/>
                </g>
            </g>
        </g>
        <g transform="matrix(4.16667,0,0,4.16667,0,0)">
            <g opacity="0.45">
                <g transform="matrix(1,0,0,1,0,209.193)">
                    <rect x="478.56" y="130.604" width="66.169" height="29.599" style="fill:rgb(0,29,36);"/>
                </g>
            </g>
        </g>
        <g transform="matrix(4.16667,0,0,4.16667,0,0)">
            <g transform="matrix(-0.847899,0.530158,0.530158,0.847899,345.192,333.519)">
                <rect x="-92.173" y="-26.445" width="96.635" height="10.889" style="fill:rgb(255,208,0);"/>
            </g>
        </g>
        <g transform="matrix(4.16667,0,0,4.16667,0,0)">
            <g transform="matrix(-0.847902,0.530153,0.530153,0.847902,346.196,332.402)">
                <rect x="-90.73" y="-26.031" width="96.636" height="5.445" style="fill:rgb(255,139,19);"/>
            </g>
        </g>
        <g transform="matrix(4.16667,0,0,4.16667,0,0)">
            <g transform="matrix(-0.847905,0.530149,0.530149,0.847905,326.855,317.021)">
                <rect x="-9.534" y="-2.735" width="7.195" height="10.888" style="fill:rgb(240,31,59);"/>
            </g>
        </g>
        <g transform="matrix(4.16667,0,0,4.16667,0,0)">
            <g transform="matrix(-0.847912,0.530138,0.530138,0.847912,331.879,312.239)">
                <rect x="-4.683" y="-1.344" width="1.944" height="10.889" style="fill:rgb(11,51,76);"/>
            </g>
        </g>
        <g transform="matrix(4.16667,0,0,4.16667,0,0)">
            <g transform="matrix(1,0,0,1,409.326,268.45)">
                <path d="M0,-6.22L15.086,-9.232L5.772,3.012L0,-6.22Z" style="fill:rgb(255,166,132);fill-rule:nonzero;"/>
            </g>
        </g>
        <g transform="matrix(4.16667,0,0,4.16667,0,0)">
            <g transform="matrix(1,0,0,1,424.412,264.562)">
                <path d="M0,-5.344L-6.584,-4.03L-4.065,0L0,-5.344Z" style="fill:rgb(70,54,98);fill-rule:nonzero;"/>
            </g>
        </g>
        <g transform="matrix(4.16667,0,0,4.16667,0,0)">
            <g transform="matrix(-0.32224,0.946658,0.946658,0.32224,371.703,290.166)">
                <path d="M-3.508,3.239L-0.268,3.239L-2.664,-2.629L-6.071,-1.006L-3.508,3.239Z" style="fill:rgb(255,148,130);fill-rule:nonzero;"/>
            </g>
        </g>
        <g transform="matrix(4.16667,0,0,4.16667,0,0)">
            <g transform="matrix(-0.487171,0.873307,0.873307,0.487171,368.018,362.225)">
                <path d="M-9.387,-1.427L1.332,-1.427L2.953,-4.332L-8.722,-7.591L-9.387,-1.427Z" style="fill:rgb(255,148,130);fill-rule:nonzero;"/>
            </g>
        </g>
        <g transform="matrix(4.16667,0,0,4.16667,0,0)">
            <g transform="matrix(-0.487171,0.873307,0.873307,0.487171,340.57,367.077)">
                <path d="M-9.387,-1.427L1.332,-1.427L2.953,-4.332L-8.722,-7.591L-9.387,-1.427Z" style="fill:rgb(255,148,130);fill-rule:nonzero;"/>
            </g>
        </g>
        <g transform="matrix(4.16667,0,0,4.16667,0,0)">
            <g transform="matrix(1,0,0,1,345.19,303.786)">
                <path d="M0,55.327L3.188,50.706L1.594,49.69L15.942,2.65L2.574,0L1.042,3.048L-8.548,45.901L-9.842,45.808L-10.397,52.739L0,55.327Z" style="fill:rgb(27,145,162);fill-rule:nonzero;"/>
            </g>
        </g>
        <g transform="matrix(4.16667,0,0,4.16667,0,0)">
            <g transform="matrix(1,0,0,1,359.135,319.869)">
                <path d="M0,-13.829L-11.371,-16.083L-12.902,-13.035L-13.266,-11.41C-13.266,-11.407 -13.62,-9.203 -11.981,-7.195C-10.34,-5.185 -2.788,2.254 -2.787,2.254L1.717,-12.515L0,-13.829Z" style="fill:rgb(20,7,49);fill-rule:nonzero;"/>
            </g>
        </g>
        <g transform="matrix(4.16667,0,0,4.16667,0,0)">
            <g transform="matrix(1,0,0,1,381.104,325.15)">
                <path d="M0,5.12L0.005,5.106L0.004,5.106C0.75,2.767 0.124,0.106 -1.818,-1.643L-24.238,-21.84C-26.883,-24.222 -30.958,-24.009 -33.34,-21.364C-35.723,-18.72 -35.51,-14.645 -32.865,-12.262L-12.887,5.735L-18.956,23.335C-18.956,23.335 -20.249,23.797 -20.527,23.797C-20.804,23.797 -19.695,29.342 -19.695,29.342L-8.605,28.048L-5.648,23.242L-7.034,23.242L-0.294,5.877C-0.178,5.63 -0.083,5.377 0,5.12" style="fill:rgb(57,176,200);fill-rule:nonzero;"/>
            </g>
        </g>
        <g transform="matrix(4.16667,0,0,4.16667,0,0)">
            <g transform="matrix(1,0,0,1,366.122,302.315)">
                <path d="M0,9.435L0.052,9.38L-9.256,0.996C-11.901,-1.386 -15.976,-1.174 -18.359,1.471C-18.456,1.58 -18.543,1.694 -18.632,1.807L-4.528,10.821L0,9.435Z" style="fill:rgb(20,7,49);fill-rule:nonzero;"/>
            </g>
        </g>
        <g transform="matrix(4.16667,0,0,4.16667,0,0)">
            <g transform="matrix(1,0,0,1,404.313,312.581)">
                <path d="M0,-34.517L3.258,-32.022L2.772,-29.457L1.629,-30.428L-10.12,-18.16L-34.586,-10.535L-38.191,-2.079L-38.191,-0.832L-42.419,0L-59.123,-10.466L-58.707,-12.268L-35.349,-26.546L-34.101,-26.408L-27.932,-22.18L-12.545,-24.467L-2.287,-32.923L-3.188,-33.893L0,-34.517Z" style="fill:rgb(240,71,101);fill-rule:nonzero;"/>
            </g>
        </g>
        <g transform="matrix(4.16667,0,0,4.16667,0,0)">
            <g transform="matrix(1,0,0,1,368.964,297.633)">
                <path d="M0,-11.598L-15.688,-6.908L-18.973,0L0,-11.598Z" style="fill:rgb(198,48,80);fill-rule:nonzero;"/>
            </g>
        </g>
        <g transform="matrix(4.16667,0,0,4.16667,0,0)">
            <g transform="matrix(0,-1,-1,0,378.044,272.242)">
                <path d="M-7.971,-7.971C-12.373,-7.971 -15.942,-4.402 -15.942,0C-15.942,4.402 -12.373,7.971 -7.971,7.971C-3.569,7.971 0,4.402 0,0C0,-4.402 -3.569,-7.971 -7.971,-7.971" style="fill:rgb(255,198,189);fill-rule:nonzero;"/>
            </g>
        </g>
        <g transform="matrix(4.16667,0,0,4.16667,0,0)">
            <g transform="matrix(0.073509,-0.997295,-0.997295,-0.073509,375.383,278.452)">
                <path d="M-2.177,-2.023C-4.369,-2.023 -6.146,-1.046 -6.145,0.16C-6.145,1.366 -4.369,2.343 -2.177,2.343C0.014,2.343 1.791,1.366 1.791,0.16C1.791,-1.046 0.015,-2.023 -2.177,-2.023" style="fill:rgb(255,151,152);fill-rule:nonzero;"/>
            </g>
        </g>
        <g transform="matrix(4.16667,0,0,4.16667,0,0)">
            <g transform="matrix(1,0,0,1,386.361,274.775)">
                <path d="M0,2.458C0,2.458 -0.277,-6.206 -11.852,-2.879C-11.852,-2.879 -9.357,-5.929 -12.823,-6.691C-12.823,-6.691 -10.258,-10.781 -18.437,-10.018C-26.616,-9.256 -30.982,-0.8 -28.695,2.597C-26.408,5.993 -23.289,-0.245 -23.289,-0.245C-23.289,-0.245 -22.318,4.607 -17.744,0.795L-16.565,0.795C-16.565,0.795 -18.824,9.282 -14.391,11.26C-9.958,13.239 -10.461,9.32 -10.461,9.32C-10.461,9.32 -13.031,7.587 -11.367,4.745C-9.704,1.903 -8.803,3.913 -9.288,5.438C-9.773,6.963 -11.148,10.676 -7.416,4.815C-7.416,4.815 -5.391,6.478 -4.948,4.191C-4.948,4.191 -2.915,5.703 -2.705,3.649C-2.705,3.649 -0.103,7.101 -0.71,3.291C-0.348,4.551 -0.303,6.277 -1.005,8.611C-1.005,8.611 1.594,7.31 0,2.458" style="fill:rgb(87,17,11);fill-rule:nonzero;"/>
            </g>
        </g>
        <g transform="matrix(4.16667,0,0,4.16667,0,0)">
            <g transform="matrix(1,0,0,1,358.683,359.668)">
                <path d="M0,5.221L18.021,5.221C18.021,5.221 18.668,1.807 9.01,0.21C9.01,0.21 7.055,3.452 4.682,0.663C4.682,0.663 -0.231,0 0,5.221" style="fill:rgb(11,51,76);fill-rule:nonzero;"/>
            </g>
        </g>
        <g transform="matrix(4.16667,0,0,4.16667,0,0)">
            <g transform="matrix(0.958594,0.284776,0.284776,-0.958594,330.647,364.014)">
                <path d="M0.382,-2.688L18.403,-2.688C18.403,-2.688 19.05,0.727 9.392,2.324C9.392,2.324 7.436,-0.919 5.065,1.871C5.065,1.871 0.151,2.534 0.382,-2.688" style="fill:rgb(11,51,76);fill-rule:nonzero;"/>
            </g>
        </g>
        <g transform="matrix(4.16667,0,0,4.16667,0,0)">
            <g transform="matrix(1,0,0,1,362.149,347.878)">
                <path d="M0,0.607L11.922,0.515L0.209,0L0,0.607Z" style="fill:rgb(20,7,49);fill-rule:nonzero;"/>
            </g>
        </g>
        <g transform="matrix(4.16667,0,0,4.16667,0,0)">
            <g transform="matrix(1,0,0,1,336.642,352.527)">
                <path d="M0,-2.841L10.143,0.948L0.212,-3.789L0,-2.841Z" style="fill:rgb(20,7,49);fill-rule:nonzero;"/>
            </g>
        </g>
        <g transform="matrix(4.16667,0,0,4.16667,0,0)">
            <g transform="matrix(1,0,0,1,349.992,286.035)">
                <path d="M0,11.598L18.973,0L0.644,10.244L0,11.598Z" style="fill:rgb(20,7,49);fill-rule:nonzero;"/>
            </g>
        </g>
        <g transform="matrix(4.16667,0,0,4.16667,0,0)">
            <g transform="matrix(1,0,0,1,404.675,275.499)">
                <path d="M0,2.843L1.856,-1.108L2.341,-0.623L2.063,1.152L6.985,-1.871L4.975,3.536L2.443,4.714L0,2.843Z" style="fill:rgb(255,198,189);fill-rule:nonzero;"/>
            </g>
        </g>
        <g transform="matrix(4.16667,0,0,4.16667,0,0)">
            <g transform="matrix(-1,0,0,1,1131.2,223.678)">
                <rect x="564.723" y="116.582" width="1.756" height="43.158" style="fill:rgb(109,45,35);"/>
            </g>
        </g>
        <g transform="matrix(4.16667,0,0,4.16667,0,0)">
            <g transform="matrix(-1,0,0,1,1184.14,223.678)">
                <rect x="591.192" y="116.582" width="1.756" height="43.158" style="fill:rgb(109,45,35);"/>
            </g>
        </g>
        <g transform="matrix(4.16667,0,0,4.16667,0,0)">
            <g transform="matrix(-1,0,0,1,1157.26,177.286)">
                <rect x="561.303" y="159.555" width="34.656" height="3.604" style="fill:rgb(243,140,120);"/>
            </g>
        </g>
        <g transform="matrix(4.16667,0,0,4.16667,0,0)">
            <g transform="matrix(1,0,0,1,588.345,374.453)">
                <path d="M0,6.857C-0.007,6.873 -0.014,6.888 -0.021,6.904C-0.014,6.888 -0.007,6.873 0,6.857M-0.518,8.223C-0.528,8.253 -0.537,8.283 -0.547,8.314C-0.537,8.283 -0.528,8.253 -0.518,8.223M11.049,-2.108C8.62,3.172 4.935,0.18 4.935,0.18C3.935,1.144 3.099,2.075 2.395,2.968C-2.706,5.411 -3.814,8.903 -3.814,8.903L-0.715,8.911C-0.719,8.929 -0.725,8.947 -0.729,8.965L6.782,8.965L16.224,1.676C18.203,-1.835 11.049,-2.108 11.049,-2.108" style="fill:rgb(239,74,100);fill-rule:nonzero;"/>
            </g>
        </g>
        <g transform="matrix(4.16667,0,0,4.16667,0,0)">
            <g transform="matrix(-0.951456,0.307785,0.307785,0.951456,555.863,378.866)">
                <path d="M-8.554,-5.513C-8.554,-5.513 -6.072,-1.467 -11.624,0.248C-11.624,0.248 -12.293,7.377 -8.554,5.875L6.335,-8.903C6.335,-8.903 0.925,-13.047 -8.554,-5.513" style="fill:rgb(239,74,100);fill-rule:nonzero;"/>
            </g>
        </g>
        <g transform="matrix(4.16667,0,0,4.16667,0,0)">
            <g transform="matrix(1,0,0,1,591.192,314.569)">
                <path d="M0,22.272L-28.394,22.272L-37.648,2.167C-37.947,1.517 -37.753,0.749 -37.18,0.315C-36.91,0.111 -36.58,0 -36.24,0L-10.172,0L0,22.272Z" style="fill:rgb(39,67,78);fill-rule:nonzero;"/>
            </g>
        </g>
        <g transform="matrix(4.16667,0,0,4.16667,0,0)">
            <g transform="matrix(-1,0,0,1,563.323,333.791)">
                <path d="M-16.764,-18.021L7.98,-18.021L-0.268,0L-24.744,0L-16.764,-18.021Z" style="fill:white;fill-rule:nonzero;"/>
            </g>
        </g>
        <g transform="matrix(4.16667,0,0,4.16667,0,0)">
            <g transform="matrix(0.427415,0.904056,0.904056,-0.427415,568.394,315.676)">
                <path d="M-2.131,-11.052L13.816,-11.052L17.449,-3.365L1.71,-2.927L-2.131,-11.052Z" style="fill:rgb(237,62,170);fill-rule:nonzero;"/>
            </g>
        </g>
        <g transform="matrix(4.16667,0,0,4.16667,0,0)">
            <g transform="matrix(1,0,0,1,555.343,317.61)">
                <path d="M0,-1.84L24.744,-1.84L25.559,0L0.842,0L0,-1.84Z" style="fill:rgb(204,133,121);fill-rule:nonzero;"/>
            </g>
        </g>
        <g transform="matrix(4.16667,0,0,4.16667,0,0)">
            <g transform="matrix(-0.438802,-0.898584,-0.898584,0.438802,576.977,316.427)">
                <path d="M-0.256,-0.411C-0.468,-0.411 -0.639,-0.283 -0.639,-0.125C-0.638,0.033 -0.468,0.161 -0.256,0.161C-0.045,0.16 0.126,0.033 0.126,-0.125C0.126,-0.283 -0.045,-0.411 -0.256,-0.411" style="fill:white;fill-rule:nonzero;"/>
            </g>
        </g>
        <g transform="matrix(4.16667,0,0,4.16667,0,0)">
            <g transform="matrix(-0.438802,-0.898584,-0.898584,0.438802,578.086,316.427)">
                <path d="M-0.256,-0.411C-0.468,-0.411 -0.639,-0.283 -0.639,-0.125C-0.638,0.033 -0.468,0.161 -0.256,0.161C-0.045,0.16 0.126,0.033 0.126,-0.125C0.126,-0.283 -0.045,-0.411 -0.256,-0.411" style="fill:white;fill-rule:nonzero;"/>
            </g>
        </g>
        <g transform="matrix(4.16667,0,0,4.16667,0,0)">
            <g transform="matrix(-0.438802,-0.898584,-0.898584,0.438802,579.125,316.427)">
                <path d="M-0.257,-0.412C-0.469,-0.412 -0.64,-0.284 -0.639,-0.126C-0.639,0.032 -0.469,0.16 -0.257,0.161C-0.045,0.161 0.124,0.032 0.125,-0.125C0.125,-0.283 -0.045,-0.411 -0.257,-0.412" style="fill:white;fill-rule:nonzero;"/>
            </g>
        </g>
        <g transform="matrix(4.16667,0,0,4.16667,0,0)">
            <g transform="matrix(0.406651,0.913584,0.913584,-0.406651,572.123,312.625)">
                <path d="M3.536,-6.437L4.623,-6.437L9.911,5.444L8.76,5.299L3.536,-6.437Z" style="fill:rgb(255,203,246);fill-rule:nonzero;"/>
            </g>
        </g>
        <g transform="matrix(4.16667,0,0,4.16667,0,0)">
            <g transform="matrix(0.406651,0.913584,0.913584,-0.406651,572.827,313.885)">
                <path d="M3.535,-6.437L4.622,-6.437L9.911,5.444L8.759,5.299L3.535,-6.437Z" style="fill:rgb(255,203,246);fill-rule:nonzero;"/>
            </g>
        </g>
        <g transform="matrix(4.16667,0,0,4.16667,0,0)">
            <g transform="matrix(1,0,0,1,575.947,361.734)">
                <path d="M0,-13.328L13.15,12.05L24.24,5.535L11.106,-23.518L8.784,-25.378L0,-13.328Z" style="fill:rgb(216,136,34);fill-rule:nonzero;"/>
            </g>
        </g>
        <g transform="matrix(4.16667,0,0,4.16667,0,0)">
            <g transform="matrix(1,0,0,1,593.061,346.671)">
                <path d="M0,4.833L-10.163,15.148L-17.113,1.735L-8.33,-10.315L-6.007,-8.455L0,4.833Z" style="fill:rgb(20,7,49);fill-rule:nonzero;"/>
            </g>
        </g>
        <g transform="matrix(4.16667,0,0,4.16667,0,0)">
            <g transform="matrix(1,0,0,1,625.276,365.511)">
                <path d="M0,-20.883C0,-20.883 -1.523,-14.739 -13.167,-14.739L-32.643,-14.739L-53.229,8.619L-62.725,1.272L-40.545,-29.156L-19.682,-29.502C-19.682,-29.502 -0.765,-23.7 0,-20.883" style="fill:rgb(251,172,59);fill-rule:nonzero;"/>
            </g>
        </g>
        <g transform="matrix(4.16667,0,0,4.16667,0,0)">
            <g transform="matrix(0.986971,0.160897,0.160897,-0.986971,583.599,336.66)">
                <path d="M0.093,-1.291L13.015,-1.291L15.606,3.205L1.069,0.483L0.093,-1.291Z" style="fill:rgb(20,7,49);fill-rule:nonzero;"/>
            </g>
        </g>
        <g transform="matrix(4.16667,0,0,4.16667,0,0)">
            <g transform="matrix(1,0,0,1,605.594,346.574)">
                <path d="M0,-10.565L18.585,0C19.468,-1.081 19.682,-1.946 19.682,-1.946C18.918,-4.763 0,-10.565 0,-10.565" style="fill:rgb(20,7,49);fill-rule:nonzero;"/>
            </g>
        </g>
        <g transform="matrix(4.16667,0,0,4.16667,0,0)">
            <g transform="matrix(1,0,0,1,575.166,318.404)">
                <path d="M0,11.991L-0.693,17.328L21.071,21.625L30.012,8.733L30.428,17.605L50.528,26.408C50.528,26.408 55.172,29.18 53.508,21.556C51.845,13.932 42.28,-13.932 42.28,-13.932L42.627,-17.189L32.646,-14.139L30.22,-12.06L14.209,10.189L0,11.991Z" style="fill:rgb(0,161,221);fill-rule:nonzero;"/>
            </g>
        </g>
        <g transform="matrix(4.16667,0,0,4.16667,0,0)">
            <g transform="matrix(1,0,0,1,575.108,335.732)">
                <path d="M0,-4.888C0,-4.888 -8.028,-4.667 -10.8,-0.324L-0.635,0L0,-4.888Z" style="fill:rgb(255,198,189);fill-rule:nonzero;"/>
            </g>
        </g>
        <g transform="matrix(4.16667,0,0,4.16667,0,0)">
            <g transform="matrix(1,0,0,1,613.233,306.067)">
                <path d="M0,-5.631L0.597,-3.641L-5.61,-1.641L-7.524,0L-8.309,-4.852L0,-5.631Z" style="fill:rgb(255,148,130);fill-rule:nonzero;"/>
            </g>
        </g>
        <g transform="matrix(4.16667,0,0,4.16667,0,0)">
            <g transform="matrix(0,-1,-1,0,607.35,284.441)">
                <path d="M-9.08,-9.08C-14.095,-9.08 -18.16,-5.015 -18.16,0C-18.16,5.014 -14.095,9.08 -9.08,9.08C-4.065,9.08 0,5.014 0,0C0,-5.015 -4.065,-9.08 -9.08,-9.08" style="fill:rgb(255,198,189);fill-rule:nonzero;"/>
            </g>
        </g>
        <g transform="matrix(4.16667,0,0,4.16667,0,0)">
            <g transform="matrix(0.297012,-0.954874,-0.954874,-0.297012,614.199,289.383)">
                <path d="M-2.842,-2.092C-5.292,-2.092 -7.278,-0.76 -7.278,0.884C-7.277,2.528 -5.292,3.861 -2.842,3.86C-0.393,3.861 1.594,2.528 1.594,0.885C1.594,-0.76 -0.392,-2.093 -2.842,-2.092" style="fill:rgb(255,151,152);fill-rule:nonzero;"/>
            </g>
        </g>
        <g transform="matrix(4.16667,0,0,4.16667,0,0)">
            <g transform="matrix(1,0,0,1,617.169,293.798)">
                <path d="M0,-12.753C-4.505,-20.239 -18.497,-14.001 -19.338,-12.476C-22.665,-6.446 -17.433,-5.221 -17.433,-5.221C-19.549,-2.402 -12.245,-6.446 -12.245,-6.446C-13.146,-4.323 -9.894,-3.864 -8.217,-3.767C-8.217,-3.767 -8.215,0.608 -7.095,1.44C-7.095,1.44 -7.856,-2.3 -6.562,-4.465C-5.563,-5.337 -3.742,-6.408 -2.565,-4.02C-0.873,-0.589 -5.129,2.08 -5.129,2.08C-7.624,7.486 -3.936,6.638 -3.936,6.638C2.387,7.245 2.079,-2.911 2.079,-2.911C7.416,-7.97 0,-12.753 0,-12.753" style="fill:rgb(6,50,76);fill-rule:nonzero;"/>
            </g>
        </g>
        <g transform="matrix(4.16667,0,0,4.16667,0,0)">
            <g transform="matrix(0.605723,0.795675,0.795675,-0.605723,593.654,369.135)">
                <path d="M1.271,-3.675L7.489,-3.675L7.932,2.173L2.175,3.848L1.271,-3.675Z" style="fill:rgb(255,198,189);fill-rule:nonzero;"/>
            </g>
        </g>
        <g transform="matrix(4.16667,0,0,4.16667,0,0)">
            <g transform="matrix(-0.50398,0.863715,0.863715,0.50398,569.995,373.33)">
                <path d="M-1.653,-7.822L4.635,-7.822L5.092,-1.976L-0.662,-0.288L-1.653,-7.822Z" style="fill:rgb(255,198,189);fill-rule:nonzero;"/>
            </g>
        </g>
        <g transform="matrix(4.16667,0,0,4.16667,0,0)">
            <g transform="matrix(1,0,0,1,592.76,351.818)">
                <path d="M0,31.586L-0.167,31.533C-0.577,31.404 -0.805,30.967 -0.675,30.557L8.803,0.508C8.932,0.098 9.369,-0.129 9.779,0L9.946,0.053C10.356,0.182 10.583,0.619 10.454,1.029L0.976,31.078C0.847,31.488 0.41,31.715 0,31.586" style="fill:rgb(0,31,48);fill-rule:nonzero;"/>
            </g>
        </g>
        <g transform="matrix(4.16667,0,0,4.16667,0,0)">
            <g transform="matrix(1,0,0,1,637.159,351.818)">
                <path d="M0,31.586L0.167,31.533C0.577,31.404 0.805,30.967 0.675,30.557L-8.803,0.508C-8.932,0.098 -9.369,-0.129 -9.779,0L-9.946,0.053C-10.356,0.182 -10.583,0.619 -10.454,1.029L-0.976,31.078C-0.847,31.488 -0.41,31.715 0,31.586" style="fill:rgb(0,31,48);fill-rule:nonzero;"/>
            </g>
        </g>
        <g transform="matrix(4.16667,0,0,4.16667,0,0)">
            <g transform="matrix(1,0,0,1,643.789,352.683)">
                <path d="M0,-39.67C-0.544,-39.908 -1.177,-39.66 -1.415,-39.117L-17.713,-1.911L-43.197,-1.911C-43.79,-1.911 -44.271,-1.43 -44.271,-0.837C-44.271,-0.243 -43.79,0.238 -43.197,0.238L-12.862,0.238C-12.268,0.238 -11.787,-0.243 -11.787,-0.837C-11.787,-1.43 -12.268,-1.911 -12.862,-1.911L-15.368,-1.911L0.553,-38.255C0.791,-38.798 0.544,-39.432 0,-39.67" style="fill:rgb(2,85,128);fill-rule:nonzero;"/>
            </g>
        </g>
        <g transform="matrix(4.16667,0,0,4.16667,0,0)">
            <g transform="matrix(1,0,0,1,467.693,231.129)">
                <path d="M0,3.424L14.479,8.558C16.603,9.311 18.935,8.2 19.688,6.076L19.995,5.209C20.748,3.085 19.637,0.753 17.513,0L3.034,-5.134C0.911,-5.887 -1.422,-4.776 -2.175,-2.652L-2.482,-1.785C-3.235,0.339 -2.124,2.671 0,3.424" style="fill:rgb(203,50,82);fill-rule:nonzero;"/>
            </g>
        </g>
        <g transform="matrix(4.16667,0,0,4.16667,0,0)">
            <g transform="matrix(1,0,0,1,465.105,229.098)">
                <path d="M0,1.866L7.988,6.245C7.988,6.245 11.235,6.299 11.843,3.089C12.451,-0.122 10.898,-0.562 10.898,-0.562L5.491,-4.433L0,1.866Z" style="fill:rgb(247,149,141);fill-rule:nonzero;"/>
            </g>
        </g>
        <g transform="matrix(4.16667,0,0,4.16667,0,0)">
            <g transform="matrix(1,0,0,1,462.527,232.635)">
                <path d="M0,3.424L-14.479,8.558C-16.603,9.311 -18.935,8.2 -19.688,6.076L-19.995,5.209C-20.748,3.085 -19.637,0.753 -17.513,0L-3.034,-5.134C-0.911,-5.887 1.421,-4.776 2.175,-2.652L2.482,-1.785C3.235,0.339 2.124,2.671 0,3.424" style="fill:rgb(240,71,101);fill-rule:nonzero;"/>
            </g>
        </g>
        <g transform="matrix(4.16667,0,0,4.16667,0,0)">
            <g transform="matrix(1,0,0,1,465.967,182.066)">
                <path d="M0,-4.802L-3.27,-5.705L-6.54,-4.802L-7.151,-3.764L-3.27,0.903L0.611,-3.764L0,-4.802Z" style="fill:rgb(255,148,130);fill-rule:nonzero;"/>
            </g>
        </g>
        <g transform="matrix(4.16667,0,0,4.16667,0,0)">
            <g transform="matrix(1,0,0,1,479.516,214.529)">
                <path d="M0,-31.283C0,-31.283 -1.987,-32.9 -6.284,-33.64C-10.582,-34.379 -12.938,-36.227 -12.938,-36.227C-12.938,-36.227 -14.879,-34.425 -16.82,-34.425C-18.76,-34.425 -20.701,-36.227 -20.701,-36.227C-20.701,-36.227 -23.058,-34.379 -27.355,-33.64C-31.652,-32.9 -33.639,-31.283 -33.639,-31.283C-39.369,-25.738 -40.385,4.944 -40.385,4.944L6.746,4.944C6.746,4.944 5.73,-25.738 0,-31.283" style="fill:rgb(251,171,58);fill-rule:nonzero;"/>
            </g>
        </g>
        <g transform="matrix(4.16667,0,0,4.16667,0,0)">
            <g transform="matrix(1,0,0,1,449.666,219.473)">
                <path d="M0,-32.53C0,-32.53 -3.697,-5.175 -2.957,0L-1.527,0L0,-32.53Z" style="fill:rgb(20,7,49);fill-rule:nonzero;"/>
            </g>
        </g>
        <g transform="matrix(4.16667,0,0,4.16667,0,0)">
            <g transform="matrix(1,0,0,1,476.223,219.473)">
                <path d="M0,-32.53C0,-32.53 3.697,-5.175 2.957,0L1.528,0L0,-32.53Z" style="fill:rgb(20,7,49);fill-rule:nonzero;"/>
            </g>
        </g>
        <g transform="matrix(4.16667,0,0,4.16667,0,0)">
            <g transform="matrix(1,0,0,1,468.413,210.232)">
                <path d="M0,15.525C0,15.525 -14.324,1.478 -23.196,-2.958C-32.068,-7.394 -37.151,-8.133 -37.151,-8.133C-37.151,-8.133 -42.696,-4.437 -42.234,-0.001C-41.772,4.435 -10.443,20.885 -5.453,22.271C-0.462,23.658 1.294,18.759 0,15.525" style="fill:rgb(0,71,105);fill-rule:nonzero;"/>
            </g>
        </g>
        <g transform="matrix(4.16667,0,0,4.16667,0,0)">
            <g transform="matrix(1,0,0,1,468.413,217.426)">
                <path d="M0,8.331C0,8.331 -11.032,-2.486 -19.729,-8.133L-19.764,-8.119L-19.672,4.357L-7.75,5.743L-13.465,11.524C-9.714,13.389 -6.725,14.724 -5.453,15.077C-0.462,16.464 1.294,11.566 0,8.331" style="fill:rgb(20,7,49);fill-rule:nonzero;"/>
            </g>
        </g>
        <g transform="matrix(4.16667,0,0,4.16667,0,0)">
            <g transform="matrix(1,0,0,1,486.274,193.089)">
                <path d="M0,28.695L-37.532,28.695L-37.532,7.5C-37.532,3.358 -34.174,0 -30.032,0L-7.5,0C-3.358,0 0,3.358 0,7.5L0,28.695Z" style="fill:rgb(1,162,222);fill-rule:nonzero;"/>
            </g>
        </g>
        <g transform="matrix(4.16667,0,0,4.16667,0,0)">
            <g transform="matrix(1,0,0,1,465.115,230.604)">
                <path d="M0,1.866L-7.988,6.244C-7.988,6.244 -11.235,6.299 -11.843,3.089C-12.451,-0.122 -10.898,-0.562 -10.898,-0.562L-5.491,-4.433L0,1.866Z" style="fill:rgb(255,198,189);fill-rule:nonzero;"/>
            </g>
        </g>
        <g transform="matrix(4.16667,0,0,4.16667,0,0)">
            <g transform="matrix(1,0,0,1,459.462,210.232)">
                <path d="M0,15.525C0,15.525 14.324,1.478 23.196,-2.958C32.068,-7.394 37.151,-8.133 37.151,-8.133C37.151,-8.133 42.696,-4.437 42.234,-0.001C41.772,4.435 10.443,20.885 5.453,22.271C0.462,23.658 -1.294,18.759 0,15.525" style="fill:rgb(8,83,125);fill-rule:nonzero;"/>
            </g>
        </g>
        <g transform="matrix(4.16667,0,0,4.16667,0,0)">
            <g transform="matrix(-0.423922,-0.905699,-0.905699,0.423922,453.446,168.63)">
                <path d="M-2.176,-3.422C-3.988,-3.422 -5.457,-2.347 -5.457,-1.02C-5.458,0.308 -3.988,1.383 -2.176,1.383C-0.364,1.384 1.104,0.308 1.105,-1.02C1.104,-2.346 -0.364,-3.422 -2.176,-3.422" style="fill:rgb(255,151,152);fill-rule:nonzero;"/>
            </g>
        </g>
        <g transform="matrix(4.16667,0,0,4.16667,0,0)">
            <g transform="matrix(-0.423922,0.905699,0.905699,0.423922,471.947,168.63)">
                <path d="M2.176,-3.422C3.988,-3.422 5.457,-2.347 5.457,-1.02C5.458,0.308 3.988,1.383 2.176,1.383C0.364,1.384 -1.104,0.308 -1.105,-1.02C-1.104,-2.346 0.364,-3.422 2.176,-3.422" style="fill:rgb(255,151,152);fill-rule:nonzero;"/>
            </g>
        </g>
        <g transform="matrix(4.16667,0,0,4.16667,0,0)">
            <g transform="matrix(0,-1,-1,0,462.696,163.215)">
                <path d="M-7.405,-7.405C-11.494,-7.405 -14.81,-4.09 -14.81,0C-14.81,4.089 -11.494,7.405 -7.405,7.405C-3.315,7.405 0,4.089 0,0C0,-4.09 -3.315,-7.405 -7.405,-7.405" style="fill:rgb(255,198,189);fill-rule:nonzero;"/>
            </g>
        </g>
        <g transform="matrix(4.16667,0,0,4.16667,0,0)">
            <g transform="matrix(1,0,0,1,468.597,159.047)">
                <path d="M0,7.099C0,7.099 -4.468,10.267 -4.71,8.638C-4.953,7.01 -4.537,5.797 -4.537,5.797C-4.537,5.797 -11.988,11.03 -12.057,8.326C-12.057,8.326 -12.196,12.104 -13.114,13.244L-13.478,10.267C-13.478,10.267 -13.548,7.98 -14.696,8.151C-14.696,8.151 -17.36,7.148 -16.563,4.549C-16.563,4.549 -19.197,4.48 -17.776,0.875C-16.355,-2.729 -11.468,-5.917 -5.577,-6.541C0.315,-7.165 3.295,-3.179 3.711,-0.58C4.127,2.019 6.465,8.569 3.91,9.325C3.91,9.325 3.492,7.712 1.505,8.071C1.505,8.071 1.962,13.27 1,14.264C1,14.264 1.314,9.198 0,7.099" style="fill:rgb(69,57,98);fill-rule:nonzero;"/>
            </g>
        </g>
        <g transform="matrix(4.16667,0,0,4.16667,0,0)">
            <g transform="matrix(1,0,0,1,330.248,354.492)">
                <path d="M0,28.926L81.964,28.926L81.964,0L67.184,0L67.184,10.397L31.9,10.397L31.9,19.544L0,19.544L0,28.926Z" style="fill:rgb(237,62,170);fill-rule:nonzero;"/>
            </g>
        </g>
        <g transform="matrix(4.16667,0,0,4.16667,0,0)">
            <g transform="matrix(-1,0,0,1,733.252,-86.066)">
                <rect x="341.974" y="279.08" width="49.304" height="27.906" style="fill:rgb(251,172,59);"/>
            </g>
        </g>
        <g transform="matrix(4.16667,0,0,4.16667,0,0)">
            <g transform="matrix(1,0,0,1,341.974,201.335)">
                <path d="M0,19.585L23.543,0L49.304,19.585L0,19.585Z" style="fill:rgb(204,132,38);fill-rule:nonzero;"/>
            </g>
        </g>
        <g transform="matrix(4.16667,0,0,4.16667,0,0)">
            <g transform="matrix(1,0,0,1,341.974,207.47)">
                <path d="M0,-14.457L23.543,0L49.304,-14.457L0,-14.457Z" style="fill:rgb(255,183,94);fill-rule:nonzero;"/>
            </g>
        </g>
        <g transform="matrix(4.16667,0,0,4.16667,0,0)">
            <g transform="matrix(0,-1,-1,0,389.634,183.278)">
                <path d="M-7.992,-7.992C-12.406,-7.992 -15.984,-4.414 -15.984,0C-15.984,4.414 -12.406,7.992 -7.992,7.992C-3.578,7.992 0,4.414 0,0C0,-4.414 -3.578,-7.992 -7.992,-7.992" style="fill:rgb(240,71,101);fill-rule:nonzero;"/>
            </g>
        </g>
        <g transform="matrix(4.16667,0,0,4.16667,0,0)">
            <g transform="matrix(1,0,0,1,337.553,252.471)">
                <path d="M0,18.692C-5.162,18.692 -9.346,14.508 -9.346,9.346C-9.346,4.184 -5.162,0 0,0C5.162,0 9.346,4.184 9.346,9.346C9.346,14.508 5.162,18.692 0,18.692M15.061,13.037L15.061,5.655L11.885,5.655C11.658,4.923 11.363,4.221 11.011,3.554L13.26,1.306L8.04,-3.914L5.792,-1.665C5.124,-2.017 4.423,-2.312 3.691,-2.539L3.691,-5.715L-3.691,-5.715L-3.691,-2.539C-4.423,-2.312 -5.124,-2.017 -5.792,-1.665L-8.04,-3.914L-13.26,1.306L-11.011,3.554C-11.363,4.221 -11.658,4.923 -11.885,5.655L-15.061,5.655L-15.061,13.037L-11.885,13.037C-11.658,13.769 -11.363,14.47 -11.011,15.137L-13.26,17.386L-8.04,22.605L-5.792,20.357C-5.124,20.709 -4.423,21.004 -3.691,21.231L-3.691,24.407L3.691,24.407L3.691,21.231C4.423,21.004 5.124,20.709 5.792,20.357L8.04,22.605L13.26,17.386L11.011,15.137C11.363,14.47 11.658,13.769 11.885,13.037L15.061,13.037Z" style="fill:rgb(31,36,114);fill-rule:nonzero;"/>
            </g>
        </g>
        <g transform="matrix(4.16667,0,0,4.16667,0,0)">
            <g transform="matrix(1,0,0,1,349.956,235.123)">
                <path d="M0,10.956C-3.026,10.956 -5.478,8.503 -5.478,5.478C-5.478,2.452 -3.026,-0.001 0,-0.001C3.026,-0.001 5.478,2.452 5.478,5.478C5.478,8.503 3.026,10.956 0,10.956M8.828,7.641L8.828,3.314L6.966,3.314C6.833,2.885 6.66,2.474 6.454,2.083L7.772,0.765L4.713,-2.295L3.395,-0.977C3.004,-1.183 2.592,-1.356 2.163,-1.489L2.163,-3.35L-2.163,-3.35L-2.163,-1.489C-2.592,-1.356 -3.004,-1.183 -3.395,-0.977L-4.713,-2.295L-7.772,0.765L-6.454,2.083C-6.66,2.474 -6.833,2.885 -6.966,3.314L-8.828,3.314L-8.828,7.641L-6.966,7.641C-6.833,8.07 -6.66,8.481 -6.454,8.872L-7.772,10.19L-4.713,13.25L-3.395,11.932C-3.004,12.138 -2.592,12.311 -2.163,12.444L-2.163,14.306L2.163,14.306L2.163,12.444C2.592,12.311 3.004,12.138 3.395,11.932L4.713,13.25L7.772,10.19L6.454,8.872C6.66,8.481 6.833,8.07 6.966,7.641L8.828,7.641Z" style="fill:rgb(1,162,222);fill-rule:nonzero;"/>
            </g>
        </g>
        <g transform="matrix(4.16667,0,0,4.16667,0,0)">
            <g transform="matrix(-1,0,0,1,1015.53,220.443)">
                <rect x="474.679" y="116.582" width="66.169" height="46.393" style="fill:rgb(0,164,212);"/>
            </g>
        </g>
        <g transform="matrix(4.16667,0,0,4.16667,0,0)">
            <g transform="matrix(-1,0,0,1,1015.06,224.319)">
                <rect x="478.162" y="119.632" width="58.736" height="36.417" style="fill:white;"/>
            </g>
        </g>
        <g transform="matrix(4.16667,0,0,4.16667,0,0)">
            <g transform="matrix(-1,0,0,1,973.618,250.866)">
                <rect x="484.776" y="121.48" width="4.066" height="6.174" style="fill:rgb(237,62,170);"/>
            </g>
        </g>
        <g transform="matrix(4.16667,0,0,4.16667,0,0)">
            <g transform="matrix(-1,0,0,1,988.742,232.827)">
                <rect x="492.338" y="121.48" width="4.066" height="24.213" style="fill:rgb(237,62,170);"/>
            </g>
        </g>
        <g transform="matrix(4.16667,0,0,4.16667,0,0)">
            <g transform="matrix(-1,0,0,1,1004.27,241.791)">
                <rect x="500.101" y="121.48" width="4.066" height="15.249" style="fill:rgb(237,62,170);"/>
            </g>
        </g>
        <g transform="matrix(4.16667,0,0,4.16667,0,0)">
            <g transform="matrix(-1,0,0,1,1019.05,235.6)">
                <rect x="507.494" y="121.48" width="4.066" height="21.44" style="fill:rgb(237,62,170);"/>
            </g>
        </g>
        <g transform="matrix(4.16667,0,0,4.16667,0,0)">
            <g transform="matrix(-1,0,0,1,1036.4,232.827)">
                <rect x="516.166" y="121.48" width="4.066" height="24.213" style="fill:rgb(237,62,170);"/>
            </g>
        </g>
        <g transform="matrix(4.16667,0,0,4.16667,0,0)">
            <g transform="matrix(-1,0,0,1,1053.03,226.543)">
                <rect x="524.483" y="121.48" width="4.066" height="30.497" style="fill:rgb(237,62,170);"/>
            </g>
        </g>
        <g transform="matrix(4.16667,0,0,4.16667,0,0)">
            <g transform="matrix(0,-1,-1,0,480.22,338.921)">
                <path d="M-1.745,-1.745C-2.709,-1.745 -3.491,-0.963 -3.491,0.001C-3.491,0.965 -2.709,1.745 -1.745,1.745C-0.781,1.745 -0,0.965 -0,0.001C-0,-0.963 -0.781,-1.745 -1.745,-1.745" style="fill:rgb(198,48,80);fill-rule:nonzero;"/>
            </g>
        </g>
        <g transform="matrix(4.16667,0,0,4.16667,0,0)">
            <g transform="matrix(0,-1,-1,0,484.994,338.921)">
                <path d="M-1.745,-1.745C-2.709,-1.745 -3.491,-0.964 -3.491,-0C-3.491,0.965 -2.709,1.745 -1.745,1.745C-0.781,1.745 -0,0.965 -0,-0C-0,-0.964 -0.781,-1.745 -1.745,-1.745" style="fill:rgb(251,171,58);fill-rule:nonzero;"/>
            </g>
        </g>
        <g transform="matrix(4.16667,0,0,4.16667,0,0)">
            <g transform="matrix(0,-1,-1,0,489.907,338.921)">
                <path d="M-1.745,-1.745C-2.709,-1.745 -3.491,-0.964 -3.491,0.001C-3.491,0.965 -2.709,1.745 -1.745,1.745C-0.781,1.745 -0,0.965 -0,0.001C-0,-0.964 -0.781,-1.745 -1.745,-1.745" style="fill:rgb(252,238,231);fill-rule:nonzero;"/>
            </g>
        </g>
        <g transform="matrix(4.16667,0,0,4.16667,0,0)">
            <g transform="matrix(1,0,0,1,582.27,233.695)">
                <path d="M0,-54.08L-10.299,-44.332L-10.299,0L29.709,0L29.709,-54.08L0,-54.08Z" style="fill:white;fill-rule:nonzero;"/>
            </g>
        </g>
        <g transform="matrix(4.16667,0,0,4.16667,0,0)">
            <g transform="matrix(1,0,0,1,571.971,180.886)">
                <path d="M0,8.477L9.917,9.748L10.299,-1.271L0,8.477Z" style="fill:rgb(212,195,187);fill-rule:nonzero;"/>
            </g>
        </g>
        <g transform="matrix(4.16667,0,0,4.16667,0,0)">
            <g transform="matrix(1,0,0,1,582.27,189.363)">
                <path d="M0,-9.748L-10.299,0L0.89,0L0,-9.748Z" style="fill:rgb(237,189,164);fill-rule:nonzero;"/>
            </g>
        </g>
        <g transform="matrix(4.16667,0,0,4.16667,0,0)">
            <g transform="matrix(1,0,0,1,608.829,271.73)">
                <path d="M0,-44.749L-6.504,-38.034L-42.05,-38.034L-42.05,0L8.534,0L8.534,-44.749L0,-44.749Z" style="fill:rgb(241,136,110);fill-rule:nonzero;"/>
            </g>
        </g>
        <g transform="matrix(4.16667,0,0,4.16667,0,0)">
            <g transform="matrix(1,0,0,1,577.443,195.647)">
                <path d="M0,0L29.064,0" style="fill:none;fill-rule:nonzero;stroke:rgb(20,7,49);stroke-width:1px;stroke-linejoin:round;"/>
            </g>
        </g>
        <g transform="matrix(4.16667,0,0,4.16667,0,0)">
            <g transform="matrix(1,0,0,1,577.443,199.528)">
                <path d="M0,0L29.064,0" style="fill:none;fill-rule:nonzero;stroke:rgb(20,7,49);stroke-width:1px;stroke-linejoin:round;"/>
            </g>
        </g>
        <g transform="matrix(4.16667,0,0,4.16667,0,0)">
            <g transform="matrix(1,0,0,1,577.443,203.323)">
                <path d="M0,0L29.064,0" style="fill:none;fill-rule:nonzero;stroke:rgb(20,7,49);stroke-width:1px;stroke-linejoin:round;"/>
            </g>
        </g>
        <g transform="matrix(4.16667,0,0,4.16667,0,0)">
            <g transform="matrix(1,0,0,1,577.443,207.205)">
                <path d="M0,0L29.064,0" style="fill:none;fill-rule:nonzero;stroke:rgb(20,7,49);stroke-width:1px;stroke-linejoin:round;"/>
            </g>
        </g>
        <g transform="matrix(4.16667,0,0,4.16667,0,0)">
            <g transform="matrix(1,0,0,1,577.443,210.345)">
                <path d="M0,0L29.064,0" style="fill:none;fill-rule:nonzero;stroke:rgb(20,7,49);stroke-width:1px;stroke-linejoin:round;"/>
            </g>
        </g>
        <g transform="matrix(4.16667,0,0,4.16667,0,0)">
            <g transform="matrix(1,0,0,1,577.443,214.227)">
                <path d="M0,0L29.064,0" style="fill:none;fill-rule:nonzero;stroke:rgb(20,7,49);stroke-width:1px;stroke-linejoin:round;"/>
            </g>
        </g>
        <g transform="matrix(4.16667,0,0,4.16667,0,0)">
            <g transform="matrix(1,0,0,1,577.443,217.318)">
                <path d="M0,0L29.064,0" style="fill:none;fill-rule:nonzero;stroke:rgb(20,7,49);stroke-width:1px;stroke-linejoin:round;"/>
            </g>
        </g>
        <g transform="matrix(4.16667,0,0,4.16667,0,0)">
            <g transform="matrix(1,0,0,1,577.443,221.2)">
                <path d="M0,0L29.064,0" style="fill:none;fill-rule:nonzero;stroke:rgb(20,7,49);stroke-width:1px;stroke-linejoin:round;"/>
            </g>
        </g>
        <g transform="matrix(4.16667,0,0,4.16667,0,0)">
            <g transform="matrix(1,0,0,1,485.837,176.652)">
                <path d="M0,-10.344L0,-1.522L-4.187,3.093L4.484,-1.522L18.673,-1.522C20.381,-1.522 21.766,-2.907 21.766,-4.615L21.766,-10.344C21.766,-12.052 20.381,-13.437 18.673,-13.437L3.093,-13.437C1.385,-13.437 0,-12.052 0,-10.344" style="fill:rgb(240,71,101);fill-rule:nonzero;"/>
            </g>
        </g>
        <g transform="matrix(4.16667,0,0,4.16667,0,0)">
            <g transform="matrix(0,-1,-1,0,490.705,167.009)">
                <path d="M-2.096,-2.096C-3.255,-2.096 -4.194,-1.157 -4.194,0.001C-4.194,1.159 -3.255,2.096 -2.096,2.096C-0.938,2.096 0.001,1.159 0.001,0.001C0.001,-1.157 -0.938,-2.096 -2.096,-2.096" style="fill:white;fill-rule:nonzero;"/>
            </g>
        </g>
        <g transform="matrix(4.16667,0,0,4.16667,0,0)">
            <g transform="matrix(0,-1,-1,0,497.047,167.009)">
                <path d="M-2.096,-2.096C-3.255,-2.096 -4.194,-1.157 -4.194,0.001C-4.194,1.159 -3.255,2.096 -2.096,2.096C-0.938,2.096 0.001,1.159 0.001,0.001C0.001,-1.157 -0.938,-2.096 -2.096,-2.096" style="fill:white;fill-rule:nonzero;"/>
            </g>
        </g>
        <g transform="matrix(4.16667,0,0,4.16667,0,0)">
            <g transform="matrix(0,-1,-1,0,503.316,167.009)">
                <path d="M-2.096,-2.096C-3.255,-2.096 -4.194,-1.157 -4.194,0.001C-4.194,1.159 -3.255,2.096 -2.096,2.096C-0.938,2.096 0.001,1.159 0.001,0.001C0.001,-1.157 -0.938,-2.096 -2.096,-2.096" style="fill:white;fill-rule:nonzero;"/>
            </g>
        </g>
        <g transform="matrix(4.16667,0,0,4.16667,0,0)">
            <g transform="matrix(1,0,0,1,419.069,185.164)">
                <path d="M0,-23.705C-2.794,-23.709 -5.081,-21.44 -5.091,-18.655C-5.101,-15.844 -2.825,-13.55 -0.023,-13.546C2.769,-13.542 5.057,-15.812 5.068,-18.597C5.079,-21.407 2.803,-23.701 0,-23.705M-0.929,-29.914L0.906,-29.914C1.415,-29.837 1.929,-29.78 2.434,-29.679C8.057,-28.56 12.284,-23.493 12.405,-17.753C12.456,-15.344 11.852,-13.115 10.694,-11.01C7.827,-5.794 4.973,-0.571 2.135,4.661C1.721,5.425 1.207,6.003 0.341,6.209L-0.364,6.209C-1.104,6.014 -1.647,5.592 -2.021,4.906C-4.944,-0.466 -7.88,-5.832 -10.813,-11.199C-12.181,-13.701 -12.682,-16.357 -12.298,-19.192C-11.641,-24.046 -7.98,-28.24 -3.242,-29.483C-2.486,-29.682 -1.701,-29.773 -0.929,-29.914" style="fill:rgb(240,71,101);fill-rule:nonzero;"/>
            </g>
        </g>
        <g transform="matrix(4.16667,0,0,4.16667,0,0)">
            <g transform="matrix(1,0,0,1,582.27,233.695)">
                <path d="M0,-54.08L-10.299,-44.332L-10.299,0L29.709,0L29.709,-54.08L0,-54.08Z" style="fill:rgb(237,198,153);fill-rule:nonzero;"/>
            </g>
        </g>
        <g transform="matrix(4.16667,0,0,4.16667,0,0)">
            <g transform="matrix(1,0,0,1,571.971,180.886)">
                <path d="M0,8.477L9.917,9.748L10.299,-1.271L0,8.477Z" style="fill:rgb(182,140,94);fill-rule:nonzero;"/>
            </g>
        </g>
        <g transform="matrix(4.16667,0,0,4.16667,0,0)">
            <g transform="matrix(1,0,0,1,582.27,189.363)">
                <path d="M0,-9.748L-10.299,0L0.89,0L0,-9.748Z" style="fill:rgb(237,189,164);fill-rule:nonzero;"/>
            </g>
        </g>
        <g transform="matrix(4.16667,0,0,4.16667,0,0)">
            <g transform="matrix(1,0,0,1,608.829,271.73)">
                <path d="M0,-44.749L-6.504,-38.034L-42.05,-38.034L-42.05,0L8.534,0L8.534,-44.749L0,-44.749Z" style="fill:rgb(241,136,110);fill-rule:nonzero;"/>
            </g>
        </g>
        <g transform="matrix(4.16667,0,0,4.16667,0,0)">
            <g transform="matrix(1,0,0,1,577.443,195.647)">
                <path d="M0,0L29.064,0" style="fill:none;fill-rule:nonzero;stroke:white;stroke-width:1px;stroke-linejoin:round;"/>
            </g>
        </g>
        <g transform="matrix(4.16667,0,0,4.16667,0,0)">
            <g transform="matrix(1,0,0,1,577.443,199.528)">
                <path d="M0,0L29.064,0" style="fill:none;fill-rule:nonzero;stroke:white;stroke-width:1px;stroke-linejoin:round;"/>
            </g>
        </g>
        <g transform="matrix(4.16667,0,0,4.16667,0,0)">
            <g transform="matrix(1,0,0,1,577.443,203.323)">
                <path d="M0,0L29.064,0" style="fill:none;fill-rule:nonzero;stroke:white;stroke-width:1px;stroke-linejoin:round;"/>
            </g>
        </g>
        <g transform="matrix(4.16667,0,0,4.16667,0,0)">
            <g transform="matrix(1,0,0,1,577.443,207.205)">
                <path d="M0,0L29.064,0" style="fill:none;fill-rule:nonzero;stroke:white;stroke-width:1px;stroke-linejoin:round;"/>
            </g>
        </g>
        <g transform="matrix(4.16667,0,0,4.16667,0,0)">
            <g transform="matrix(1,0,0,1,577.443,210.345)">
                <path d="M0,0L29.064,0" style="fill:none;fill-rule:nonzero;stroke:white;stroke-width:1px;stroke-linejoin:round;"/>
            </g>
        </g>
        <g transform="matrix(4.16667,0,0,4.16667,0,0)">
            <g transform="matrix(1,0,0,1,577.443,214.227)">
                <path d="M0,0L29.064,0" style="fill:none;fill-rule:nonzero;stroke:white;stroke-width:1px;stroke-linejoin:round;"/>
            </g>
        </g>
        <g transform="matrix(4.16667,0,0,4.16667,0,0)">
            <g transform="matrix(1,0,0,1,577.443,217.318)">
                <path d="M0,0L29.064,0" style="fill:none;fill-rule:nonzero;stroke:white;stroke-width:1px;stroke-linejoin:round;"/>
            </g>
        </g>
        <g transform="matrix(4.16667,0,0,4.16667,0,0)">
            <g transform="matrix(1,0,0,1,577.443,221.2)">
                <path d="M0,0L29.064,0" style="fill:none;fill-rule:nonzero;stroke:white;stroke-width:1px;stroke-linejoin:round;"/>
            </g>
        </g>
        <g transform="matrix(4.16667,0,0,4.16667,0,0)">
            <g transform="matrix(1,0,0,1,583.696,251.192)">
                <path d="M0,0.638L6.062,7.019L18.506,-6.381" style="fill:none;fill-rule:nonzero;stroke:white;stroke-width:4px;stroke-linejoin:round;"/>
            </g>
        </g>
        <g transform="matrix(4.16667,0,0,4.16667,0,0)">
            <g transform="matrix(0,-1,-1,0,540.844,165.647)">
                <path d="M-21.823,-21.823C-33.876,-21.823 -43.646,-12.052 -43.646,0C-43.646,12.053 -33.876,21.823 -21.823,21.823C-9.77,21.823 0,12.053 0,0C0,-12.052 -9.77,-21.823 -21.823,-21.823" style="fill:rgb(241,136,110);fill-rule:nonzero;"/>
            </g>
        </g>
        <g transform="matrix(4.16667,0,0,4.16667,0,0)">
            <g transform="matrix(1,0,0,1,531.073,174.978)">
                <path d="M0,26.191L0,0L26.19,13.096L0,26.191Z" style="fill:white;fill-rule:nonzero;"/>
            </g>
        </g>
        <g transform="matrix(4.16667,0,0,4.16667,0,0)">
            <text x="386.704px" y="194.248px" style="font-family:'LucidaGrande', 'Lucida Grande', sans-serif;font-weight:500;font-size:9.932px;fill:white;">8</text>
        </g>
    </g>
</svg>
